<svg xmlns="http://www.w3.org/2000/svg" xmlns:xlink="http://www.w3.org/1999/xlink" width="40" zoomAndPan="magnify" viewBox="0 0 30 30.000001" height="40" preserveAspectRatio="xMidYMid meet" version="1.0"><defs><g/><clipPath id="1b0cfed5c2"><path d="M 0.484375 0 L 29.515625 0 L 29.515625 29.03125 L 0.484375 29.03125 Z M 0.484375 0 " clip-rule="nonzero"/></clipPath></defs><g clip-path="url(#1b0cfed5c2)"><path fill="#ffffff" d="M 0.484375 0 L 29.515625 0 L 29.515625 29.03125 L 0.484375 29.03125 Z M 0.484375 0 " fill-opacity="1" fill-rule="nonzero"/><path fill="#f8f5f2" d="M 0.484375 0 L 29.515625 0 L 29.515625 29.03125 L 0.484375 29.03125 Z M 0.484375 0 " fill-opacity="1" fill-rule="nonzero"/></g><g fill="#232323" fill-opacity="1"><g transform="translate(13.809894, 8.352443)"><g><path d="M -1.65625 0 L -1.65625 12.71875 L -4.171875 12.71875 L -4.171875 7.515625 L -4.4375 7.515625 L -8.6875 12.71875 L -11.265625 12.71875 L -11.265625 12.5 L -6.578125 6.71875 L -11.75 0.21875 L -11.75 0 L -8.90625 0 L -4.4375 5.484375 L -4.171875 5.484375 L -4.171875 0 Z M -1.65625 0 "/></g></g></g><g fill="#232323" fill-opacity="1"><g transform="translate(7.987802, 21.087672)"><g><path d="M 9.859375 -7.9375 L 9.859375 -12.71875 L 12.375 -12.71875 L 12.375 0 L 9.859375 0 L 9.859375 -5.796875 L 4.171875 -5.796875 L 4.171875 0 L 1.65625 0 L 1.65625 -12.71875 L 4.171875 -12.71875 L 4.171875 -7.9375 Z M 9.859375 -7.9375 "/></g></g></g><g fill="#232323" fill-opacity="1"><g transform="translate(16.139062, 21.087666)"><g><path d="M 1.65625 0 L 1.65625 -12.71875 L 4.171875 -12.71875 L 4.171875 -7.515625 L 4.4375 -7.515625 L 8.6875 -12.71875 L 11.265625 -12.71875 L 11.265625 -12.5 L 6.578125 -6.71875 L 11.75 -0.21875 L 11.75 0 L 8.90625 0 L 4.4375 -5.484375 L 4.171875 -5.484375 L 4.171875 0 Z M 1.65625 0 "/></g></g></g></svg>